<svg width="1967" height="1981" xmlns="http://www.w3.org/2000/svg" xmlns:xlink="http://www.w3.org/1999/xlink" xml:space="preserve" overflow="hidden"><defs><clipPath id="clip0"><rect x="1217" y="247" width="1967" height="1981"/></clipPath></defs><g clip-path="url(#clip0)" transform="translate(-1217 -247)"><path d="M1217 575.692C1217 394.712 1363.71 248 1544.69 248L2855.41 248C3036.39 248 3183.11 394.712 3183.11 575.692L3183.11 1900.31C3183.11 2081.29 3036.39 2228 2855.41 2228L1544.69 2228C1363.71 2228 1217 2081.29 1217 1900.31Z" fill="#80350E" fill-rule="evenodd"/><path d="M1217 1366 2201.42 1366C2384.55 1366 2533 1514.64 2533 1698L2533 1698C2533 1881.36 2384.55 2030 2201.42 2030L1545.92 2030C1386.97 2030 1254.35 1917.11 1223.68 1767.03L1220.78 1738.25 1217 1738.25Z" fill="#C04F15" fill-rule="evenodd"/><path d="M1937 1698C1937 1552.75 2054.75 1435 2200 1435 2345.25 1435 2463 1552.75 2463 1698 2463 1843.25 2345.25 1961 2200 1961 2054.75 1961 1937 1843.25 1937 1698Z" fill="#FAEB7C" fill-rule="evenodd"/><path d="M1217 576.329C1217 394.446 1364.45 247 1546.33 247L2853.67 247C3035.55 247 3183 394.446 3183 576.329L3183 839.671C3183 1021.55 3035.55 1169 2853.67 1169L1546.33 1169C1364.45 1169 1217 1021.55 1217 839.671Z" fill="#C04F15" fill-rule="evenodd"/><path d="M1370 877 1370 626.5C1370 488.153 1555.8 376 1785 376 2014.2 376 2200 488.153 2200 626.5L2200 877Z" fill="#00B050" fill-rule="evenodd"/><path d="M2200 877 2200 626.5C2200 488.153 2386.03 376 2615.5 376 2844.97 376 3031 488.153 3031 626.5L3031 877Z" fill="#00B050" fill-rule="evenodd"/><path d="M1452 877 1452 673.5C1452 561.11 1600.87 470 1784.5 470 1968.13 470 2117 561.11 2117 673.5L2117 877Z" fill="#84E291" fill-rule="evenodd"/><path d="M2287 877 2287 673.5C2287 561.11 2436.09 470 2620 470 2803.91 470 2953 561.11 2953 673.5L2953 877Z" fill="#84E291" fill-rule="evenodd"/><path d="M64.0005 0 1597 0C1632.35-1.32168e-14 1661 28.6542 1661 64.001L1661 128 0 128 0 64.001C0 28.6542 28.654-2.64337e-14 64.0005-2.64337e-14Z" fill="#80350E" fill-rule="evenodd" transform="matrix(1 0 0 -1 1370 959)"/><path d="M1217 1075 1220.79 1075 1223.68 1103.71C1254.36 1253.4 1387.01 1366 1546 1366L1217 1366Z" fill="#C04F15" fill-rule="evenodd"/></g></svg>