<svg width="1650" height="1650" xmlns="http://www.w3.org/2000/svg" xmlns:xlink="http://www.w3.org/1999/xlink" xml:space="preserve" overflow="hidden"><defs><clipPath id="clip0"><rect x="1375" y="413" width="1650" height="1650"/></clipPath><linearGradient x1="2200" y1="413" x2="2200" y2="2063" gradientUnits="userSpaceOnUse" spreadMethod="reflect" id="fill1"><stop offset="0" stop-color="#F2AA84"/><stop offset="0.00854701" stop-color="#F1A983"/><stop offset="0.017094" stop-color="#F1A983"/><stop offset="0.025641" stop-color="#F1A983"/><stop offset="0.034188" stop-color="#F1A983"/><stop offset="0.042735" stop-color="#F1A983"/><stop offset="0.0512821" stop-color="#F1A983"/><stop offset="0.0598291" stop-color="#F1A983"/><stop offset="0.0683761" stop-color="#F1A983"/><stop offset="0.0769231" stop-color="#F1A983"/><stop offset="0.0854701" stop-color="#F0A882"/><stop offset="0.0940171" stop-color="#F0A882"/><stop offset="0.102564" stop-color="#F0A882"/><stop offset="0.111111" stop-color="#F0A882"/><stop offset="0.119658" stop-color="#EFA781"/><stop offset="0.128205" stop-color="#EFA781"/><stop offset="0.136752" stop-color="#EFA781"/><stop offset="0.145299" stop-color="#EEA680"/><stop offset="0.153846" stop-color="#EEA680"/><stop offset="0.162393" stop-color="#EEA680"/><stop offset="0.17094" stop-color="#EDA57F"/><stop offset="0.179487" stop-color="#EDA57F"/><stop offset="0.188034" stop-color="#EDA47E"/><stop offset="0.196581" stop-color="#ECA47E"/><stop offset="0.205128" stop-color="#ECA37D"/><stop offset="0.213675" stop-color="#EBA37D"/><stop offset="0.222222" stop-color="#EBA37C"/><stop offset="0.230769" stop-color="#EAA27C"/><stop offset="0.239316" stop-color="#EAA17B"/><stop offset="0.247863" stop-color="#E9A17B"/><stop offset="0.25641" stop-color="#E9A07A"/><stop offset="0.264957" stop-color="#E8A07A"/><stop offset="0.273504" stop-color="#E79F79"/><stop offset="0.282051" stop-color="#E79F79"/><stop offset="0.290598" stop-color="#E69E78"/><stop offset="0.299145" stop-color="#E69D77"/><stop offset="0.307692" stop-color="#E59D77"/><stop offset="0.316239" stop-color="#E49C76"/><stop offset="0.324786" stop-color="#E49B75"/><stop offset="0.333333" stop-color="#E39B74"/><stop offset="0.34188" stop-color="#E29A74"/><stop offset="0.350427" stop-color="#E29973"/><stop offset="0.358974" stop-color="#E19872"/><stop offset="0.367521" stop-color="#E09871"/><stop offset="0.376068" stop-color="#DF9771"/><stop offset="0.384615" stop-color="#DE9670"/><stop offset="0.393162" stop-color="#DE956F"/><stop offset="0.401709" stop-color="#DD946E"/><stop offset="0.410256" stop-color="#DC936D"/><stop offset="0.418803" stop-color="#DB936C"/><stop offset="0.42735" stop-color="#DA926C"/><stop offset="0.435897" stop-color="#D9916B"/><stop offset="0.444444" stop-color="#D9906A"/><stop offset="0.452991" stop-color="#D88F69"/><stop offset="0.461538" stop-color="#D78E68"/><stop offset="0.470085" stop-color="#D68D67"/><stop offset="0.478632" stop-color="#D58C66"/><stop offset="0.487179" stop-color="#D48B65"/><stop offset="0.495726" stop-color="#D38A64"/><stop offset="0.504274" stop-color="#D28963"/><stop offset="0.512821" stop-color="#D18862"/><stop offset="0.521368" stop-color="#D08761"/><stop offset="0.529915" stop-color="#CF8660"/><stop offset="0.538462" stop-color="#CE855F"/><stop offset="0.547009" stop-color="#CD845D"/><stop offset="0.555556" stop-color="#CC835C"/><stop offset="0.564103" stop-color="#CB825B"/><stop offset="0.57265" stop-color="#C9805A"/><stop offset="0.581197" stop-color="#C87F59"/><stop offset="0.589744" stop-color="#C77E58"/><stop offset="0.598291" stop-color="#C67D56"/><stop offset="0.606838" stop-color="#C57C55"/><stop offset="0.615385" stop-color="#C47A54"/><stop offset="0.623932" stop-color="#C27953"/><stop offset="0.632479" stop-color="#C17852"/><stop offset="0.641026" stop-color="#C07750"/><stop offset="0.649573" stop-color="#BF754F"/><stop offset="0.65812" stop-color="#BD744E"/><stop offset="0.666667" stop-color="#BC734C"/><stop offset="0.675214" stop-color="#BB714B"/><stop offset="0.683761" stop-color="#BA704A"/><stop offset="0.692308" stop-color="#B86F48"/><stop offset="0.700855" stop-color="#B76D47"/><stop offset="0.709402" stop-color="#B66C46"/><stop offset="0.717949" stop-color="#B46B44"/><stop offset="0.726496" stop-color="#B36943"/><stop offset="0.735043" stop-color="#B16841"/><stop offset="0.74359" stop-color="#B06640"/><stop offset="0.752137" stop-color="#AF653E"/><stop offset="0.760684" stop-color="#AD633D"/><stop offset="0.769231" stop-color="#AC623B"/><stop offset="0.777778" stop-color="#AA603A"/><stop offset="0.786325" stop-color="#A95F38"/><stop offset="0.794872" stop-color="#A75D37"/><stop offset="0.803419" stop-color="#A65C35"/><stop offset="0.811966" stop-color="#A45A34"/><stop offset="0.820513" stop-color="#A35932"/><stop offset="0.82906" stop-color="#A15730"/><stop offset="0.837607" stop-color="#A0562F"/><stop offset="0.846154" stop-color="#9E542D"/><stop offset="0.854701" stop-color="#9D522C"/><stop offset="0.863248" stop-color="#9B512A"/><stop offset="0.871795" stop-color="#994F28"/><stop offset="0.880342" stop-color="#984D27"/><stop offset="0.888889" stop-color="#964C25"/><stop offset="0.897436" stop-color="#944A23"/><stop offset="0.905983" stop-color="#934821"/><stop offset="0.91453" stop-color="#914720"/><stop offset="0.923077" stop-color="#8F451E"/><stop offset="0.931624" stop-color="#8E431C"/><stop offset="0.940171" stop-color="#8C411A"/><stop offset="0.948718" stop-color="#8A3F19"/><stop offset="0.957265" stop-color="#883E17"/><stop offset="0.965812" stop-color="#873C15"/><stop offset="0.974359" stop-color="#853A13"/><stop offset="0.982906" stop-color="#833811"/><stop offset="0.991453" stop-color="#81360F"/><stop offset="1" stop-color="#80350E"/></linearGradient></defs><g clip-path="url(#clip0)" transform="translate(-1375 -413)"><path d="M1375 688.005C1375 536.124 1498.12 413 1650.01 413L2749.99 413C2901.88 413 3025 536.124 3025 688.005L3025 1787.99C3025 1939.88 2901.88 2063 2749.99 2063L1650.01 2063C1498.12 2063 1375 1939.88 1375 1787.99Z" fill="url(#fill1)" fill-rule="evenodd"/><path d="M1788.38 536C2281.36 536 2681 738.143 2681 987.5 2681 1236.86 2281.36 1439 1788.38 1439 1665.14 1439 1547.72 1426.37 1440.93 1403.52L1375 1387.45 1375 687.588C1375 668.613 1376.92 650.086 1380.59 632.193L1396.04 582.419 1440.93 571.481C1547.72 548.634 1665.14 536 1788.38 536Z" fill="#13501B" fill-rule="evenodd"/><path d="M1757.08 617C2250.23 617 2650 782.207 2650 986 2650 1189.79 2250.23 1355 1757.08 1355 1633.8 1355 1516.35 1344.67 1409.52 1326L1375 1319.13 1375 687.365 1378.55 652.163 1409.52 645.998C1516.35 627.325 1633.8 617 1757.08 617Z" fill="#47D45A" fill-rule="evenodd"/><path d="M1725.49 692C2218.41 692 2618 823.628 2618 986 2618 1148.37 2218.41 1280 1725.49 1280 1602.26 1280 1484.86 1271.77 1378.08 1256.9L1375 1256.41 1375 715.593 1378.08 715.104C1484.86 700.227 1602.26 692 1725.49 692Z" fill="#C2F1C8" fill-rule="evenodd"/><path d="M1788.38 1039C2281.36 1039 2681 1241.37 2681 1491 2681 1740.63 2281.36 1943 1788.38 1943 1665.14 1943 1547.72 1930.35 1440.93 1907.48L1397.67 1896.93 1396.61 1894.97C1382.69 1862.05 1375 1825.85 1375 1787.86L1375 1090.6 1440.93 1074.52C1547.72 1051.65 1665.14 1039 1788.38 1039Z" fill="#13501B" fill-rule="evenodd"/><path d="M1757.08 1120C2250.23 1120 2650 1285.21 2650 1489 2650 1692.79 2250.23 1858 1757.08 1858 1633.8 1858 1516.35 1847.67 1409.52 1829L1378.59 1822.85 1375 1787.19 1375 1155.87 1409.52 1149C1516.35 1130.33 1633.8 1120 1757.08 1120Z" fill="#47D45A" fill-rule="evenodd"/><path d="M1725.49 1196C2218.41 1196 2618 1327.4 2618 1489.5 2618 1651.6 2218.41 1783 1725.49 1783 1602.26 1783 1484.86 1774.79 1378.08 1759.94L1375 1759.45 1375 1219.55 1378.08 1219.06C1484.86 1204.21 1602.26 1196 1725.49 1196Z" fill="#C2F1C8" fill-rule="evenodd"/></g></svg>