<svg width="60" height="40" viewBox="0 0 60 40" fill="none" xmlns="http://www.w3.org/2000/svg">
<path d="M18.9083 21.9353H14.2929C14.144 19.8509 12.3574 18.362 9.5286 18.362C6.99756 18.362 5.21095 19.5531 5.21095 21.3397C5.21095 23.7219 7.44422 24.1685 10.1241 24.7641C13.5485 25.3596 19.5038 26.4018 19.5038 32.0594C19.5038 36.377 15.484 39.3547 9.82637 39.3547C4.16876 39.3547 0 36.377 0 31.9105H4.7643C4.91318 34.1438 6.99756 35.6326 9.97525 35.6326C12.6552 35.6326 14.7395 34.2927 14.7395 32.3572C14.7395 29.975 12.3574 29.5284 9.67748 29.0817C6.10426 28.4862 0.446655 27.444 0.446655 21.9353C0.446655 17.6176 4.16876 14.7888 9.67748 14.7888C15.0373 14.7888 18.9083 17.6176 18.9083 21.9353Z" fill="#FF4438"/>
<path d="M24.2687 15.2356H19.3555V38.9082H24.2687V15.2356Z" fill="#FFDA00"/>
<path d="M29.1788 0.645264H24.2656V38.9085H29.1788V0.645264Z" fill="#FF9E18"/>
<path d="M59.998 35.9305C59.998 37.866 58.5092 39.206 56.4248 39.206C54.3404 39.206 52.8516 37.866 52.8516 35.9305C52.8516 33.995 54.3404 32.6551 56.4248 32.6551C58.5092 32.5062 59.998 33.8461 59.998 35.9305Z" fill="#00A7E1"/>
<path d="M40.4958 26.9975L51.9599 15.2356H45.409L34.0938 26.9975L45.409 38.9082H51.9599L40.4958 26.9975Z" fill="#00AE42"/>
<path d="M34.0929 5.55884H29.1797V38.9089H34.0929V5.55884Z" fill="#8331A7"/>
</svg>
